<svg width="41" height="41" viewBox="0 0 41 41" fill="none" xmlns="http://www.w3.org/2000/svg">
<path d="M8.78468 23.9165C7.50285 21.8174 6.82703 19.4044 6.83206 16.9448C6.83206 9.47255 12.9513 3.4165 20.4987 3.4165C28.0461 3.4165 34.1654 9.47255 34.1654 16.9448C34.1704 19.4044 33.4946 21.8174 32.2128 23.9165M25.6237 32.4582L25.4016 33.5635C25.1625 34.7713 25.0412 35.3743 24.7696 35.8526C24.351 36.5899 23.6733 37.1452 22.8682 37.4106C22.3471 37.5832 21.7287 37.5832 20.4987 37.5832C19.2687 37.5832 18.6503 37.5832 18.1293 37.4124C17.3239 37.1465 16.6461 36.5905 16.2279 35.8526C15.9563 35.3743 15.835 34.7713 15.5958 33.5635L15.3737 32.4582M20.4987 27.3332V18.7915M12.6114 29.2089C12.4542 28.7374 12.3756 28.5 12.3841 28.3086C12.3938 28.1108 12.4606 27.92 12.5764 27.7593C12.6922 27.5986 12.8521 27.475 13.0367 27.4032C13.2144 27.3332 13.4638 27.3332 13.9592 27.3332H27.0382C27.5354 27.3332 27.7831 27.3332 27.9607 27.4015C28.1456 27.4734 28.3057 27.5973 28.4215 27.7583C28.5373 27.9193 28.604 28.1105 28.6133 28.3086C28.6219 28.5 28.5433 28.7357 28.3861 29.2089C28.0957 30.0819 27.9505 30.5192 27.7267 30.8729C27.2586 31.6119 26.5249 32.1432 25.6767 32.3574C25.2701 32.4582 24.8123 32.4582 23.8949 32.4582H17.1026C16.1852 32.4582 15.7256 32.4582 15.3208 32.3557C14.4729 32.142 13.7392 31.6113 13.2708 30.8729C13.047 30.5192 12.9018 30.0819 12.6114 29.2089Z" stroke="#267E79" stroke-width="2.5625" stroke-linecap="round" stroke-linejoin="round"/>
</svg>
